<svg width="19" height="23" viewBox="0 0 19 23" fill="none" xmlns="http://www.w3.org/2000/svg">
<path d="M16.328 13.7989C17.8038 13.7989 19 14.9574 19 16.3863V17.4271C19 18.6849 18.4331 19.8799 17.4475 20.6991C15.5886 22.2446 12.9281 23 9.49613 23C6.06471 23 3.40602 22.2449 1.55006 20.6997C0.56604 19.8805 0 18.6864 0 17.4297V16.3863C0 14.9574 1.19628 13.7989 2.67196 13.7989H16.328ZM16.328 15.5238H2.67196C2.18006 15.5238 1.78131 15.91 1.78131 16.3863V17.4297C1.78131 18.1837 2.12093 18.9001 2.71134 19.3918C4.20537 20.6356 6.45695 21.2751 9.49613 21.2751C12.5361 21.2751 14.7899 20.6352 16.2873 19.3904C16.8785 18.8988 17.2187 18.1818 17.2187 17.4271V16.3863C17.2187 15.91 16.8199 15.5238 16.328 15.5238ZM9.3756 0.00787727L9.49649 0C9.9474 0 10.32 0.324463 10.379 0.745442L10.3871 0.862474L10.3862 1.7238L14.5432 1.72438C16.0188 1.72438 17.2151 2.88281 17.2151 4.31181V9.49193C17.2151 10.9209 16.0188 12.0794 14.5432 12.0794H4.44905C2.97337 12.0794 1.77709 10.9209 1.77709 9.49193V4.31181C1.77709 2.88281 2.97337 1.72438 4.44905 1.72438L8.60489 1.7238L8.60584 0.862474C8.60584 0.425832 8.94084 0.0649846 9.3756 0.00787727ZM14.5432 3.44933H4.44905C3.95716 3.44933 3.5584 3.83547 3.5584 4.31181V9.49193C3.5584 9.96824 3.95716 10.3544 4.44905 10.3544H14.5432C15.035 10.3544 15.4338 9.96824 15.4338 9.49193V4.31181C15.4338 3.83547 15.035 3.44933 14.5432 3.44933ZM6.82328 5.17428C7.64262 5.17428 8.30682 5.81748 8.30682 6.61091C8.30682 7.40435 7.64262 8.04755 6.82328 8.04755C6.00393 8.04755 5.3397 7.40435 5.3397 6.61091C5.3397 5.81748 6.00393 5.17428 6.82328 5.17428ZM12.1586 5.17428C12.978 5.17428 13.6422 5.81748 13.6422 6.61091C13.6422 7.40435 12.978 8.04755 12.1586 8.04755C11.3392 8.04755 10.675 7.40435 10.675 6.61091C10.675 5.81748 11.3392 5.17428 12.1586 5.17428Z" fill="#FBF8EF"/>
</svg>
